<svg xmlns="http://www.w3.org/2000/svg" viewBox="0 0 256 257">
  <defs>
    <linearGradient id="a" x1="0%" x2="50%" y1="0%" y2="100%">
      <stop offset="0%" stop-color="#41D1FF"/>
      <stop offset="100%" stop-color="#BD34FE"/>
    </linearGradient>
    <linearGradient id="b" x1="40%" x2="50%" y1="0%" y2="100%">
      <stop offset="0%" stop-color="#FFEA83"/>
      <stop offset="100%" stop-color="#FFDD35"/>
    </linearGradient>
  </defs>
  <path fill="url(#a)" d="M255.153 37.938L134.897 252.976c-2.5 4.363-8.79 4.402-11.341.07L.845 37.99c-2.75-4.82 1.33-10.79 6.85-9.98l120.71 17.67a6 6 0 0 0 1.72 0l118.17-17.64c5.5-.82 9.6 5.12 6.86 9.9Z"/>
  <path fill="url(#b)" d="M185.432.063L96.44 17.502a3 3 0 0 0-2.42 3.48l5.45 40.49a3 3 0 0 0 3.54 2.53l24.8-5.35c2.32-.5 4.42 1.55 3.86 3.86l-7.37 30.34a3 3 0 0 0 3.67 3.7l15.32-4.3c2.34-.66 4.45 1.56 3.8 3.9l-11.73 41.86c-.73 2.6 2.66 4.02 3.93 1.63l.85-1.62 72.57-144.9c1.21-2.42-.86-5.18-3.55-4.66Z"/>
</svg>